<?xml version="1.0" encoding="utf-8" standalone="no"?>
<!DOCTYPE svg PUBLIC "-//W3C//DTD SVG 1.1//EN"
  "http://www.w3.org/Graphics/SVG/1.1/DTD/svg11.dtd">
<!-- Created with matplotlib (http://matplotlib.org/) -->
<svg height="265pt" version="1.1" viewBox="0 0 388 265" width="388pt" xmlns="http://www.w3.org/2000/svg" xmlns:xlink="http://www.w3.org/1999/xlink">
 <defs>
  <style type="text/css">
*{stroke-linecap:butt;stroke-linejoin:round;}
  </style>
 </defs>
 <g id="figure_1">
  <g id="patch_1">
   <path d="M 0 265.69625 
L 388.120313 265.69625 
L 388.120313 0 
L 0 0 
z
" style="fill:#ffffff;"/>
  </g>
  <g id="axes_1">
   <g id="patch_2">
    <path d="M 42.620313 228.14 
L 377.420313 228.14 
L 377.420313 10.7 
L 42.620313 10.7 
z
" style="fill:#ffffff;"/>
   </g>
   <g id="PathCollection_1">
    <defs>
     <path d="M 0 3 
C 0.795609 3 1.55874 2.683901 2.12132 2.12132 
C 2.683901 1.55874 3 0.795609 3 0 
C 3 -0.795609 2.683901 -1.55874 2.12132 -2.12132 
C 1.55874 -2.683901 0.795609 -3 0 -3 
C -0.795609 -3 -1.55874 -2.683901 -2.12132 -2.12132 
C -2.683901 -1.55874 -3 -0.795609 -3 0 
C -3 0.795609 -2.683901 1.55874 -2.12132 2.12132 
C -1.55874 2.683901 -0.795609 3 0 3 
z
" id="m4181ecfb60" style="stroke:#1f77b4;"/>
    </defs>
    <g clip-path="url(#pf26bca0b7c)">
     <use style="fill:#1f77b4;stroke:#1f77b4;" x="199.744002" xlink:href="#m4181ecfb60" y="111.30547"/>
     <use style="fill:#1f77b4;stroke:#1f77b4;" x="208.849024" xlink:href="#m4181ecfb60" y="153.819926"/>
     <use style="fill:#1f77b4;stroke:#1f77b4;" x="125.389274" xlink:href="#m4181ecfb60" y="90.021269"/>
     <use style="fill:#1f77b4;stroke:#1f77b4;" x="142.995257" xlink:href="#m4181ecfb60" y="95.471666"/>
     <use style="fill:#1f77b4;stroke:#1f77b4;" x="227.606078" xlink:href="#m4181ecfb60" y="173.252851"/>
     <use style="fill:#1f77b4;stroke:#1f77b4;" x="191.190754" xlink:href="#m4181ecfb60" y="89.951803"/>
     <use style="fill:#1f77b4;stroke:#1f77b4;" x="136.642227" xlink:href="#m4181ecfb60" y="102.723364"/>
     <use style="fill:#1f77b4;stroke:#1f77b4;" x="266.407743" xlink:href="#m4181ecfb60" y="208.864609"/>
     <use style="fill:#1f77b4;stroke:#1f77b4;" x="204.965938" xlink:href="#m4181ecfb60" y="111.264606"/>
     <use style="fill:#1f77b4;stroke:#1f77b4;" x="221.05847" xlink:href="#m4181ecfb60" y="110.295515"/>
     <use style="fill:#1f77b4;stroke:#1f77b4;" x="125.177065" xlink:href="#m4181ecfb60" y="79.517754"/>
     <use style="fill:#1f77b4;stroke:#1f77b4;" x="266.246123" xlink:href="#m4181ecfb60" y="86.988291"/>
     <use style="fill:#1f77b4;stroke:#1f77b4;" x="245.841441" xlink:href="#m4181ecfb60" y="150.876665"/>
     <use style="fill:#1f77b4;stroke:#1f77b4;" x="195.98444" xlink:href="#m4181ecfb60" y="69.561869"/>
     <use style="fill:#1f77b4;stroke:#1f77b4;" x="133.099838" xlink:href="#m4181ecfb60" y="148.602143"/>
     <use style="fill:#1f77b4;stroke:#1f77b4;" x="142.801979" xlink:href="#m4181ecfb60" y="95.551128"/>
     <use style="fill:#1f77b4;stroke:#1f77b4;" x="190.17303" xlink:href="#m4181ecfb60" y="141.840061"/>
     <use style="fill:#1f77b4;stroke:#1f77b4;" x="233.798341" xlink:href="#m4181ecfb60" y="133.24698"/>
     <use style="fill:#1f77b4;stroke:#1f77b4;" x="210.028447" xlink:href="#m4181ecfb60" y="103.686001"/>
     <use style="fill:#1f77b4;stroke:#1f77b4;" x="170.935278" xlink:href="#m4181ecfb60" y="94.388423"/>
     <use style="fill:#1f77b4;stroke:#1f77b4;" x="119.874635" xlink:href="#m4181ecfb60" y="78.567295"/>
     <use style="fill:#1f77b4;stroke:#1f77b4;" x="190.481681" xlink:href="#m4181ecfb60" y="104.811258"/>
     <use style="fill:#1f77b4;stroke:#1f77b4;" x="201.02028" xlink:href="#m4181ecfb60" y="136.183318"/>
     <use style="fill:#1f77b4;stroke:#1f77b4;" x="131.661314" xlink:href="#m4181ecfb60" y="163.677576"/>
     <use style="fill:#1f77b4;stroke:#1f77b4;" x="122.887296" xlink:href="#m4181ecfb60" y="88.455227"/>
     <use style="fill:#1f77b4;stroke:#1f77b4;" x="101.099159" xlink:href="#m4181ecfb60" y="95.235934"/>
     <use style="fill:#1f77b4;stroke:#1f77b4;" x="111.329624" xlink:href="#m4181ecfb60" y="94.792822"/>
     <use style="fill:#1f77b4;stroke:#1f77b4;" x="178.036807" xlink:href="#m4181ecfb60" y="98.891423"/>
     <use style="fill:#1f77b4;stroke:#1f77b4;" x="163.950653" xlink:href="#m4181ecfb60" y="139.29487"/>
     <use style="fill:#1f77b4;stroke:#1f77b4;" x="257.275479" xlink:href="#m4181ecfb60" y="152.826024"/>
     <use style="fill:#1f77b4;stroke:#1f77b4;" x="166.804142" xlink:href="#m4181ecfb60" y="84.959661"/>
     <use style="fill:#1f77b4;stroke:#1f77b4;" x="163.114474" xlink:href="#m4181ecfb60" y="114.369942"/>
     <use style="fill:#1f77b4;stroke:#1f77b4;" x="166.926848" xlink:href="#m4181ecfb60" y="127.62147"/>
     <use style="fill:#1f77b4;stroke:#1f77b4;" x="160.756365" xlink:href="#m4181ecfb60" y="107.65832"/>
     <use style="fill:#1f77b4;stroke:#1f77b4;" x="201.116883" xlink:href="#m4181ecfb60" y="121.984862"/>
     <use style="fill:#1f77b4;stroke:#1f77b4;" x="164.952803" xlink:href="#m4181ecfb60" y="83.598419"/>
     <use style="fill:#1f77b4;stroke:#1f77b4;" x="230.501204" xlink:href="#m4181ecfb60" y="105.826032"/>
     <use style="fill:#1f77b4;stroke:#1f77b4;" x="143.190361" xlink:href="#m4181ecfb60" y="87.134829"/>
     <use style="fill:#1f77b4;stroke:#1f77b4;" x="148.519978" xlink:href="#m4181ecfb60" y="125.892165"/>
     <use style="fill:#1f77b4;stroke:#1f77b4;" x="174.183012" xlink:href="#m4181ecfb60" y="162.417562"/>
     <use style="fill:#1f77b4;stroke:#1f77b4;" x="148.135788" xlink:href="#m4181ecfb60" y="131.680339"/>
     <use style="fill:#1f77b4;stroke:#1f77b4;" x="158.366867" xlink:href="#m4181ecfb60" y="96.748356"/>
     <use style="fill:#1f77b4;stroke:#1f77b4;" x="152.058026" xlink:href="#m4181ecfb60" y="70.916004"/>
     <use style="fill:#1f77b4;stroke:#1f77b4;" x="149.367209" xlink:href="#m4181ecfb60" y="111.011505"/>
     <use style="fill:#1f77b4;stroke:#1f77b4;" x="174.264458" xlink:href="#m4181ecfb60" y="115.13946"/>
     <use style="fill:#1f77b4;stroke:#1f77b4;" x="237.580504" xlink:href="#m4181ecfb60" y="125.785224"/>
     <use style="fill:#1f77b4;stroke:#1f77b4;" x="234.859584" xlink:href="#m4181ecfb60" y="110.58714"/>
     <use style="fill:#1f77b4;stroke:#1f77b4;" x="155.580703" xlink:href="#m4181ecfb60" y="155.393553"/>
     <use style="fill:#1f77b4;stroke:#1f77b4;" x="208.029185" xlink:href="#m4181ecfb60" y="186.093395"/>
    </g>
   </g>
   <g id="PathCollection_2">
    <defs>
     <path d="M 0 3 
C 0.795609 3 1.55874 2.683901 2.12132 2.12132 
C 2.683901 1.55874 3 0.795609 3 0 
C 3 -0.795609 2.683901 -1.55874 2.12132 -2.12132 
C 1.55874 -2.683901 0.795609 -3 0 -3 
C -0.795609 -3 -1.55874 -2.683901 -2.12132 -2.12132 
C -2.683901 -1.55874 -3 -0.795609 -3 0 
C -3 0.795609 -2.683901 1.55874 -2.12132 2.12132 
C -1.55874 2.683901 -0.795609 3 0 3 
z
" id="m7b7dcc8b85" style="stroke:#ff7f0e;"/>
    </defs>
    <g clip-path="url(#pf26bca0b7c)">
     <use style="fill:#ff7f0e;stroke:#ff7f0e;" x="251.515595" xlink:href="#m7b7dcc8b85" y="53.225172"/>
     <use style="fill:#ff7f0e;stroke:#ff7f0e;" x="272.18104" xlink:href="#m7b7dcc8b85" y="81.216363"/>
     <use style="fill:#ff7f0e;stroke:#ff7f0e;" x="247.091976" xlink:href="#m7b7dcc8b85" y="131.521799"/>
     <use style="fill:#ff7f0e;stroke:#ff7f0e;" x="222.240696" xlink:href="#m7b7dcc8b85" y="121.75131"/>
     <use style="fill:#ff7f0e;stroke:#ff7f0e;" x="220.217764" xlink:href="#m7b7dcc8b85" y="123.598954"/>
     <use style="fill:#ff7f0e;stroke:#ff7f0e;" x="227.999374" xlink:href="#m7b7dcc8b85" y="123.153784"/>
     <use style="fill:#ff7f0e;stroke:#ff7f0e;" x="235.505297" xlink:href="#m7b7dcc8b85" y="133.811731"/>
     <use style="fill:#ff7f0e;stroke:#ff7f0e;" x="198.799784" xlink:href="#m7b7dcc8b85" y="117.666128"/>
     <use style="fill:#ff7f0e;stroke:#ff7f0e;" x="258.48861" xlink:href="#m7b7dcc8b85" y="150.449621"/>
     <use style="fill:#ff7f0e;stroke:#ff7f0e;" x="258.50636" xlink:href="#m7b7dcc8b85" y="153.072698"/>
     <use style="fill:#ff7f0e;stroke:#ff7f0e;" x="299.151573" xlink:href="#m7b7dcc8b85" y="80.974696"/>
     <use style="fill:#ff7f0e;stroke:#ff7f0e;" x="248.132228" xlink:href="#m7b7dcc8b85" y="89.969016"/>
     <use style="fill:#ff7f0e;stroke:#ff7f0e;" x="236.423818" xlink:href="#m7b7dcc8b85" y="132.496158"/>
     <use style="fill:#ff7f0e;stroke:#ff7f0e;" x="212.222128" xlink:href="#m7b7dcc8b85" y="118.770439"/>
     <use style="fill:#ff7f0e;stroke:#ff7f0e;" x="240.157436" xlink:href="#m7b7dcc8b85" y="109.09361"/>
     <use style="fill:#ff7f0e;stroke:#ff7f0e;" x="266.929894" xlink:href="#m7b7dcc8b85" y="162.296596"/>
     <use style="fill:#ff7f0e;stroke:#ff7f0e;" x="271.243187" xlink:href="#m7b7dcc8b85" y="164.884755"/>
     <use style="fill:#ff7f0e;stroke:#ff7f0e;" x="244.672513" xlink:href="#m7b7dcc8b85" y="81.270194"/>
     <use style="fill:#ff7f0e;stroke:#ff7f0e;" x="260.070922" xlink:href="#m7b7dcc8b85" y="153.621108"/>
     <use style="fill:#ff7f0e;stroke:#ff7f0e;" x="257.865355" xlink:href="#m7b7dcc8b85" y="106.816133"/>
     <use style="fill:#ff7f0e;stroke:#ff7f0e;" x="250.534485" xlink:href="#m7b7dcc8b85" y="145.196076"/>
     <use style="fill:#ff7f0e;stroke:#ff7f0e;" x="237.018064" xlink:href="#m7b7dcc8b85" y="94.587637"/>
     <use style="fill:#ff7f0e;stroke:#ff7f0e;" x="193.043259" xlink:href="#m7b7dcc8b85" y="105.972074"/>
     <use style="fill:#ff7f0e;stroke:#ff7f0e;" x="297.626218" xlink:href="#m7b7dcc8b85" y="188.828336"/>
     <use style="fill:#ff7f0e;stroke:#ff7f0e;" x="122.775359" xlink:href="#m7b7dcc8b85" y="111.199687"/>
     <use style="fill:#ff7f0e;stroke:#ff7f0e;" x="228.169549" xlink:href="#m7b7dcc8b85" y="115.555161"/>
     <use style="fill:#ff7f0e;stroke:#ff7f0e;" x="246.458194" xlink:href="#m7b7dcc8b85" y="145.956648"/>
     <use style="fill:#ff7f0e;stroke:#ff7f0e;" x="211.538688" xlink:href="#m7b7dcc8b85" y="113.577627"/>
     <use style="fill:#ff7f0e;stroke:#ff7f0e;" x="240.949303" xlink:href="#m7b7dcc8b85" y="135.639773"/>
     <use style="fill:#ff7f0e;stroke:#ff7f0e;" x="231.617282" xlink:href="#m7b7dcc8b85" y="126.169575"/>
     <use style="fill:#ff7f0e;stroke:#ff7f0e;" x="271.344588" xlink:href="#m7b7dcc8b85" y="100.281892"/>
     <use style="fill:#ff7f0e;stroke:#ff7f0e;" x="239.549989" xlink:href="#m7b7dcc8b85" y="98.523326"/>
     <use style="fill:#ff7f0e;stroke:#ff7f0e;" x="246.877131" xlink:href="#m7b7dcc8b85" y="139.844012"/>
     <use style="fill:#ff7f0e;stroke:#ff7f0e;" x="233.411878" xlink:href="#m7b7dcc8b85" y="94.020845"/>
     <use style="fill:#ff7f0e;stroke:#ff7f0e;" x="307.737562" xlink:href="#m7b7dcc8b85" y="195.409368"/>
     <use style="fill:#ff7f0e;stroke:#ff7f0e;" x="251.731456" xlink:href="#m7b7dcc8b85" y="150.093802"/>
     <use style="fill:#ff7f0e;stroke:#ff7f0e;" x="224.892779" xlink:href="#m7b7dcc8b85" y="79.220305"/>
     <use style="fill:#ff7f0e;stroke:#ff7f0e;" x="276.35611" xlink:href="#m7b7dcc8b85" y="46.919028"/>
     <use style="fill:#ff7f0e;stroke:#ff7f0e;" x="207.631282" xlink:href="#m7b7dcc8b85" y="113.065145"/>
     <use style="fill:#ff7f0e;stroke:#ff7f0e;" x="203.929878" xlink:href="#m7b7dcc8b85" y="88.863558"/>
     <use style="fill:#ff7f0e;stroke:#ff7f0e;" x="226.947966" xlink:href="#m7b7dcc8b85" y="89.585487"/>
     <use style="fill:#ff7f0e;stroke:#ff7f0e;" x="223.261802" xlink:href="#m7b7dcc8b85" y="84.114289"/>
     <use style="fill:#ff7f0e;stroke:#ff7f0e;" x="211.966989" xlink:href="#m7b7dcc8b85" y="127.579745"/>
     <use style="fill:#ff7f0e;stroke:#ff7f0e;" x="226.178979" xlink:href="#m7b7dcc8b85" y="129.411641"/>
     <use style="fill:#ff7f0e;stroke:#ff7f0e;" x="229.958804" xlink:href="#m7b7dcc8b85" y="124.511312"/>
     <use style="fill:#ff7f0e;stroke:#ff7f0e;" x="204.219175" xlink:href="#m7b7dcc8b85" y="111.706337"/>
     <use style="fill:#ff7f0e;stroke:#ff7f0e;" x="235.970396" xlink:href="#m7b7dcc8b85" y="62.322986"/>
     <use style="fill:#ff7f0e;stroke:#ff7f0e;" x="199.839423" xlink:href="#m7b7dcc8b85" y="102.029748"/>
     <use style="fill:#ff7f0e;stroke:#ff7f0e;" x="273.178396" xlink:href="#m7b7dcc8b85" y="167.613871"/>
     <use style="fill:#ff7f0e;stroke:#ff7f0e;" x="256.021063" xlink:href="#m7b7dcc8b85" y="151.6017"/>
     <use style="fill:#ff7f0e;stroke:#ff7f0e;" x="253.037365" xlink:href="#m7b7dcc8b85" y="153.78846"/>
    </g>
   </g>
   <g id="matplotlib.axis_1">
    <g id="xtick_1">
     <g id="line2d_1">
      <defs>
       <path d="M 0 0 
L 0 3.5 
" id="m60f3cb259b" style="stroke:#000000;stroke-width:0.8;"/>
      </defs>
      <g>
       <use style="stroke:#000000;stroke-width:0.8;" x="76.100313" xlink:href="#m60f3cb259b" y="228.14"/>
      </g>
     </g>
     <g id="text_1">
      <!-- −4 -->
      <defs>
       <path d="M 10.59375 35.5 
L 73.1875 35.5 
L 73.1875 27.203125 
L 10.59375 27.203125 
z
" id="DejaVuSans-2212"/>
       <path d="M 37.796875 64.3125 
L 12.890625 25.390625 
L 37.796875 25.390625 
z
M 35.203125 72.90625 
L 47.609375 72.90625 
L 47.609375 25.390625 
L 58.015625 25.390625 
L 58.015625 17.1875 
L 47.609375 17.1875 
L 47.609375 0 
L 37.796875 0 
L 37.796875 17.1875 
L 4.890625 17.1875 
L 4.890625 26.703125 
z
" id="DejaVuSans-34"/>
      </defs>
      <g transform="translate(68.729219 242.738437)scale(0.1 -0.1)">
       <use xlink:href="#DejaVuSans-2212"/>
       <use x="83.789062" xlink:href="#DejaVuSans-34"/>
      </g>
     </g>
    </g>
    <g id="xtick_2">
     <g id="line2d_2">
      <g>
       <use style="stroke:#000000;stroke-width:0.8;" x="143.060313" xlink:href="#m60f3cb259b" y="228.14"/>
      </g>
     </g>
     <g id="text_2">
      <!-- −2 -->
      <defs>
       <path d="M 19.1875 8.296875 
L 53.609375 8.296875 
L 53.609375 0 
L 7.328125 0 
L 7.328125 8.296875 
Q 12.9375 14.109375 22.625 23.890625 
Q 32.328125 33.6875 34.8125 36.53125 
Q 39.546875 41.84375 41.421875 45.53125 
Q 43.3125 49.21875 43.3125 52.78125 
Q 43.3125 58.59375 39.234375 62.25 
Q 35.15625 65.921875 28.609375 65.921875 
Q 23.96875 65.921875 18.8125 64.3125 
Q 13.671875 62.703125 7.8125 59.421875 
L 7.8125 69.390625 
Q 13.765625 71.78125 18.9375 73 
Q 24.125 74.21875 28.421875 74.21875 
Q 39.75 74.21875 46.484375 68.546875 
Q 53.21875 62.890625 53.21875 53.421875 
Q 53.21875 48.921875 51.53125 44.890625 
Q 49.859375 40.875 45.40625 35.40625 
Q 44.1875 33.984375 37.640625 27.21875 
Q 31.109375 20.453125 19.1875 8.296875 
z
" id="DejaVuSans-32"/>
      </defs>
      <g transform="translate(135.689219 242.738437)scale(0.1 -0.1)">
       <use xlink:href="#DejaVuSans-2212"/>
       <use x="83.789062" xlink:href="#DejaVuSans-32"/>
      </g>
     </g>
    </g>
    <g id="xtick_3">
     <g id="line2d_3">
      <g>
       <use style="stroke:#000000;stroke-width:0.8;" x="210.020313" xlink:href="#m60f3cb259b" y="228.14"/>
      </g>
     </g>
     <g id="text_3">
      <!-- 0 -->
      <defs>
       <path d="M 31.78125 66.40625 
Q 24.171875 66.40625 20.328125 58.90625 
Q 16.5 51.421875 16.5 36.375 
Q 16.5 21.390625 20.328125 13.890625 
Q 24.171875 6.390625 31.78125 6.390625 
Q 39.453125 6.390625 43.28125 13.890625 
Q 47.125 21.390625 47.125 36.375 
Q 47.125 51.421875 43.28125 58.90625 
Q 39.453125 66.40625 31.78125 66.40625 
z
M 31.78125 74.21875 
Q 44.046875 74.21875 50.515625 64.515625 
Q 56.984375 54.828125 56.984375 36.375 
Q 56.984375 17.96875 50.515625 8.265625 
Q 44.046875 -1.421875 31.78125 -1.421875 
Q 19.53125 -1.421875 13.0625 8.265625 
Q 6.59375 17.96875 6.59375 36.375 
Q 6.59375 54.828125 13.0625 64.515625 
Q 19.53125 74.21875 31.78125 74.21875 
z
" id="DejaVuSans-30"/>
      </defs>
      <g transform="translate(206.839063 242.738437)scale(0.1 -0.1)">
       <use xlink:href="#DejaVuSans-30"/>
      </g>
     </g>
    </g>
    <g id="xtick_4">
     <g id="line2d_4">
      <g>
       <use style="stroke:#000000;stroke-width:0.8;" x="276.980313" xlink:href="#m60f3cb259b" y="228.14"/>
      </g>
     </g>
     <g id="text_4">
      <!-- 2 -->
      <g transform="translate(273.799063 242.738437)scale(0.1 -0.1)">
       <use xlink:href="#DejaVuSans-32"/>
      </g>
     </g>
    </g>
    <g id="xtick_5">
     <g id="line2d_5">
      <g>
       <use style="stroke:#000000;stroke-width:0.8;" x="343.940313" xlink:href="#m60f3cb259b" y="228.14"/>
      </g>
     </g>
     <g id="text_5">
      <!-- 4 -->
      <g transform="translate(340.759063 242.738437)scale(0.1 -0.1)">
       <use xlink:href="#DejaVuSans-34"/>
      </g>
     </g>
    </g>
    <g id="text_6">
     <!-- Feature 1 -->
     <defs>
      <path d="M 9.8125 72.90625 
L 51.703125 72.90625 
L 51.703125 64.59375 
L 19.671875 64.59375 
L 19.671875 43.109375 
L 48.578125 43.109375 
L 48.578125 34.8125 
L 19.671875 34.8125 
L 19.671875 0 
L 9.8125 0 
z
" id="DejaVuSans-46"/>
      <path d="M 56.203125 29.59375 
L 56.203125 25.203125 
L 14.890625 25.203125 
Q 15.484375 15.921875 20.484375 11.0625 
Q 25.484375 6.203125 34.421875 6.203125 
Q 39.59375 6.203125 44.453125 7.46875 
Q 49.3125 8.734375 54.109375 11.28125 
L 54.109375 2.78125 
Q 49.265625 0.734375 44.1875 -0.34375 
Q 39.109375 -1.421875 33.890625 -1.421875 
Q 20.796875 -1.421875 13.15625 6.1875 
Q 5.515625 13.8125 5.515625 26.8125 
Q 5.515625 40.234375 12.765625 48.109375 
Q 20.015625 56 32.328125 56 
Q 43.359375 56 49.78125 48.890625 
Q 56.203125 41.796875 56.203125 29.59375 
z
M 47.21875 32.234375 
Q 47.125 39.59375 43.09375 43.984375 
Q 39.0625 48.390625 32.421875 48.390625 
Q 24.90625 48.390625 20.390625 44.140625 
Q 15.875 39.890625 15.1875 32.171875 
z
" id="DejaVuSans-65"/>
      <path d="M 34.28125 27.484375 
Q 23.390625 27.484375 19.1875 25 
Q 14.984375 22.515625 14.984375 16.5 
Q 14.984375 11.71875 18.140625 8.90625 
Q 21.296875 6.109375 26.703125 6.109375 
Q 34.1875 6.109375 38.703125 11.40625 
Q 43.21875 16.703125 43.21875 25.484375 
L 43.21875 27.484375 
z
M 52.203125 31.203125 
L 52.203125 0 
L 43.21875 0 
L 43.21875 8.296875 
Q 40.140625 3.328125 35.546875 0.953125 
Q 30.953125 -1.421875 24.3125 -1.421875 
Q 15.921875 -1.421875 10.953125 3.296875 
Q 6 8.015625 6 15.921875 
Q 6 25.140625 12.171875 29.828125 
Q 18.359375 34.515625 30.609375 34.515625 
L 43.21875 34.515625 
L 43.21875 35.40625 
Q 43.21875 41.609375 39.140625 45 
Q 35.0625 48.390625 27.6875 48.390625 
Q 23 48.390625 18.546875 47.265625 
Q 14.109375 46.140625 10.015625 43.890625 
L 10.015625 52.203125 
Q 14.9375 54.109375 19.578125 55.046875 
Q 24.21875 56 28.609375 56 
Q 40.484375 56 46.34375 49.84375 
Q 52.203125 43.703125 52.203125 31.203125 
z
" id="DejaVuSans-61"/>
      <path d="M 18.3125 70.21875 
L 18.3125 54.6875 
L 36.8125 54.6875 
L 36.8125 47.703125 
L 18.3125 47.703125 
L 18.3125 18.015625 
Q 18.3125 11.328125 20.140625 9.421875 
Q 21.96875 7.515625 27.59375 7.515625 
L 36.8125 7.515625 
L 36.8125 0 
L 27.59375 0 
Q 17.1875 0 13.234375 3.875 
Q 9.28125 7.765625 9.28125 18.015625 
L 9.28125 47.703125 
L 2.6875 47.703125 
L 2.6875 54.6875 
L 9.28125 54.6875 
L 9.28125 70.21875 
z
" id="DejaVuSans-74"/>
      <path d="M 8.5 21.578125 
L 8.5 54.6875 
L 17.484375 54.6875 
L 17.484375 21.921875 
Q 17.484375 14.15625 20.5 10.265625 
Q 23.53125 6.390625 29.59375 6.390625 
Q 36.859375 6.390625 41.078125 11.03125 
Q 45.3125 15.671875 45.3125 23.6875 
L 45.3125 54.6875 
L 54.296875 54.6875 
L 54.296875 0 
L 45.3125 0 
L 45.3125 8.40625 
Q 42.046875 3.421875 37.71875 1 
Q 33.40625 -1.421875 27.6875 -1.421875 
Q 18.265625 -1.421875 13.375 4.4375 
Q 8.5 10.296875 8.5 21.578125 
z
M 31.109375 56 
z
" id="DejaVuSans-75"/>
      <path d="M 41.109375 46.296875 
Q 39.59375 47.171875 37.8125 47.578125 
Q 36.03125 48 33.890625 48 
Q 26.265625 48 22.1875 43.046875 
Q 18.109375 38.09375 18.109375 28.8125 
L 18.109375 0 
L 9.078125 0 
L 9.078125 54.6875 
L 18.109375 54.6875 
L 18.109375 46.1875 
Q 20.953125 51.171875 25.484375 53.578125 
Q 30.03125 56 36.53125 56 
Q 37.453125 56 38.578125 55.875 
Q 39.703125 55.765625 41.0625 55.515625 
z
" id="DejaVuSans-72"/>
      <path id="DejaVuSans-20"/>
      <path d="M 12.40625 8.296875 
L 28.515625 8.296875 
L 28.515625 63.921875 
L 10.984375 60.40625 
L 10.984375 69.390625 
L 28.421875 72.90625 
L 38.28125 72.90625 
L 38.28125 8.296875 
L 54.390625 8.296875 
L 54.390625 0 
L 12.40625 0 
z
" id="DejaVuSans-31"/>
     </defs>
     <g transform="translate(185.978125 256.416562)scale(0.1 -0.1)">
      <use xlink:href="#DejaVuSans-46"/>
      <use x="57.441406" xlink:href="#DejaVuSans-65"/>
      <use x="118.964844" xlink:href="#DejaVuSans-61"/>
      <use x="180.244141" xlink:href="#DejaVuSans-74"/>
      <use x="219.453125" xlink:href="#DejaVuSans-75"/>
      <use x="282.832031" xlink:href="#DejaVuSans-72"/>
      <use x="323.914062" xlink:href="#DejaVuSans-65"/>
      <use x="385.4375" xlink:href="#DejaVuSans-20"/>
      <use x="417.224609" xlink:href="#DejaVuSans-31"/>
     </g>
    </g>
   </g>
   <g id="matplotlib.axis_2">
    <g id="ytick_1">
     <g id="line2d_6">
      <defs>
       <path d="M 0 0 
L -3.5 0 
" id="m803f669c83" style="stroke:#000000;stroke-width:0.8;"/>
      </defs>
      <g>
       <use style="stroke:#000000;stroke-width:0.8;" x="42.620313" xlink:href="#m803f669c83" y="206.396"/>
      </g>
     </g>
     <g id="text_7">
      <!-- −4 -->
      <g transform="translate(20.878125 210.195219)scale(0.1 -0.1)">
       <use xlink:href="#DejaVuSans-2212"/>
       <use x="83.789062" xlink:href="#DejaVuSans-34"/>
      </g>
     </g>
    </g>
    <g id="ytick_2">
     <g id="line2d_7">
      <g>
       <use style="stroke:#000000;stroke-width:0.8;" x="42.620313" xlink:href="#m803f669c83" y="162.908"/>
      </g>
     </g>
     <g id="text_8">
      <!-- −2 -->
      <g transform="translate(20.878125 166.707219)scale(0.1 -0.1)">
       <use xlink:href="#DejaVuSans-2212"/>
       <use x="83.789062" xlink:href="#DejaVuSans-32"/>
      </g>
     </g>
    </g>
    <g id="ytick_3">
     <g id="line2d_8">
      <g>
       <use style="stroke:#000000;stroke-width:0.8;" x="42.620313" xlink:href="#m803f669c83" y="119.42"/>
      </g>
     </g>
     <g id="text_9">
      <!-- 0 -->
      <g transform="translate(29.257813 123.219219)scale(0.1 -0.1)">
       <use xlink:href="#DejaVuSans-30"/>
      </g>
     </g>
    </g>
    <g id="ytick_4">
     <g id="line2d_9">
      <g>
       <use style="stroke:#000000;stroke-width:0.8;" x="42.620313" xlink:href="#m803f669c83" y="75.932"/>
      </g>
     </g>
     <g id="text_10">
      <!-- 2 -->
      <g transform="translate(29.257813 79.731219)scale(0.1 -0.1)">
       <use xlink:href="#DejaVuSans-32"/>
      </g>
     </g>
    </g>
    <g id="ytick_5">
     <g id="line2d_10">
      <g>
       <use style="stroke:#000000;stroke-width:0.8;" x="42.620313" xlink:href="#m803f669c83" y="32.444"/>
      </g>
     </g>
     <g id="text_11">
      <!-- 4 -->
      <g transform="translate(29.257813 36.243219)scale(0.1 -0.1)">
       <use xlink:href="#DejaVuSans-34"/>
      </g>
     </g>
    </g>
    <g id="text_12">
     <!-- Feature 2 -->
     <g transform="translate(14.798438 143.462187)rotate(-90)scale(0.1 -0.1)">
      <use xlink:href="#DejaVuSans-46"/>
      <use x="57.441406" xlink:href="#DejaVuSans-65"/>
      <use x="118.964844" xlink:href="#DejaVuSans-61"/>
      <use x="180.244141" xlink:href="#DejaVuSans-74"/>
      <use x="219.453125" xlink:href="#DejaVuSans-75"/>
      <use x="282.832031" xlink:href="#DejaVuSans-72"/>
      <use x="323.914062" xlink:href="#DejaVuSans-65"/>
      <use x="385.4375" xlink:href="#DejaVuSans-20"/>
      <use x="417.224609" xlink:href="#DejaVuSans-32"/>
     </g>
    </g>
   </g>
   <g id="patch_3">
    <path d="M 42.620313 228.14 
L 42.620313 10.7 
" style="fill:none;stroke:#000000;stroke-linecap:square;stroke-linejoin:miter;stroke-width:0.8;"/>
   </g>
   <g id="patch_4">
    <path d="M 377.420313 228.14 
L 377.420313 10.7 
" style="fill:none;stroke:#000000;stroke-linecap:square;stroke-linejoin:miter;stroke-width:0.8;"/>
   </g>
   <g id="patch_5">
    <path d="M 42.620312 228.14 
L 377.420313 228.14 
" style="fill:none;stroke:#000000;stroke-linecap:square;stroke-linejoin:miter;stroke-width:0.8;"/>
   </g>
   <g id="patch_6">
    <path d="M 42.620312 10.7 
L 377.420313 10.7 
" style="fill:none;stroke:#000000;stroke-linecap:square;stroke-linejoin:miter;stroke-width:0.8;"/>
   </g>
   <g id="legend_1">
    <g id="patch_7">
     <path d="M 302.571875 48.05625 
L 370.420313 48.05625 
Q 372.420313 48.05625 372.420313 46.05625 
L 372.420313 17.7 
Q 372.420313 15.7 370.420313 15.7 
L 302.571875 15.7 
Q 300.571875 15.7 300.571875 17.7 
L 300.571875 46.05625 
Q 300.571875 48.05625 302.571875 48.05625 
z
" style="fill:#ffffff;opacity:0.8;stroke:#cccccc;stroke-linejoin:miter;"/>
    </g>
    <g id="PathCollection_3">
     <g>
      <use style="fill:#1f77b4;stroke:#1f77b4;" x="314.571875" xlink:href="#m4181ecfb60" y="24.673437"/>
     </g>
    </g>
    <g id="text_13">
     <!-- Class 0 -->
     <defs>
      <path d="M 64.40625 67.28125 
L 64.40625 56.890625 
Q 59.421875 61.53125 53.78125 63.8125 
Q 48.140625 66.109375 41.796875 66.109375 
Q 29.296875 66.109375 22.65625 58.46875 
Q 16.015625 50.828125 16.015625 36.375 
Q 16.015625 21.96875 22.65625 14.328125 
Q 29.296875 6.6875 41.796875 6.6875 
Q 48.140625 6.6875 53.78125 8.984375 
Q 59.421875 11.28125 64.40625 15.921875 
L 64.40625 5.609375 
Q 59.234375 2.09375 53.4375 0.328125 
Q 47.65625 -1.421875 41.21875 -1.421875 
Q 24.65625 -1.421875 15.125 8.703125 
Q 5.609375 18.84375 5.609375 36.375 
Q 5.609375 53.953125 15.125 64.078125 
Q 24.65625 74.21875 41.21875 74.21875 
Q 47.75 74.21875 53.53125 72.484375 
Q 59.328125 70.75 64.40625 67.28125 
z
" id="DejaVuSans-43"/>
      <path d="M 9.421875 75.984375 
L 18.40625 75.984375 
L 18.40625 0 
L 9.421875 0 
z
" id="DejaVuSans-6c"/>
      <path d="M 44.28125 53.078125 
L 44.28125 44.578125 
Q 40.484375 46.53125 36.375 47.5 
Q 32.28125 48.484375 27.875 48.484375 
Q 21.1875 48.484375 17.84375 46.4375 
Q 14.5 44.390625 14.5 40.28125 
Q 14.5 37.15625 16.890625 35.375 
Q 19.28125 33.59375 26.515625 31.984375 
L 29.59375 31.296875 
Q 39.15625 29.25 43.1875 25.515625 
Q 47.21875 21.78125 47.21875 15.09375 
Q 47.21875 7.46875 41.1875 3.015625 
Q 35.15625 -1.421875 24.609375 -1.421875 
Q 20.21875 -1.421875 15.453125 -0.5625 
Q 10.6875 0.296875 5.421875 2 
L 5.421875 11.28125 
Q 10.40625 8.6875 15.234375 7.390625 
Q 20.0625 6.109375 24.8125 6.109375 
Q 31.15625 6.109375 34.5625 8.28125 
Q 37.984375 10.453125 37.984375 14.40625 
Q 37.984375 18.0625 35.515625 20.015625 
Q 33.0625 21.96875 24.703125 23.78125 
L 21.578125 24.515625 
Q 13.234375 26.265625 9.515625 29.90625 
Q 5.8125 33.546875 5.8125 39.890625 
Q 5.8125 47.609375 11.28125 51.796875 
Q 16.75 56 26.8125 56 
Q 31.78125 56 36.171875 55.265625 
Q 40.578125 54.546875 44.28125 53.078125 
z
" id="DejaVuSans-73"/>
     </defs>
     <g transform="translate(332.571875 27.298437)scale(0.1 -0.1)">
      <use xlink:href="#DejaVuSans-43"/>
      <use x="69.824219" xlink:href="#DejaVuSans-6c"/>
      <use x="97.607422" xlink:href="#DejaVuSans-61"/>
      <use x="158.886719" xlink:href="#DejaVuSans-73"/>
      <use x="210.986328" xlink:href="#DejaVuSans-73"/>
      <use x="263.085938" xlink:href="#DejaVuSans-20"/>
      <use x="294.873047" xlink:href="#DejaVuSans-30"/>
     </g>
    </g>
    <g id="PathCollection_4">
     <g>
      <use style="fill:#ff7f0e;stroke:#ff7f0e;" x="314.571875" xlink:href="#m7b7dcc8b85" y="39.351562"/>
     </g>
    </g>
    <g id="text_14">
     <!-- Class 1 -->
     <g transform="translate(332.571875 41.976562)scale(0.1 -0.1)">
      <use xlink:href="#DejaVuSans-43"/>
      <use x="69.824219" xlink:href="#DejaVuSans-6c"/>
      <use x="97.607422" xlink:href="#DejaVuSans-61"/>
      <use x="158.886719" xlink:href="#DejaVuSans-73"/>
      <use x="210.986328" xlink:href="#DejaVuSans-73"/>
      <use x="263.085938" xlink:href="#DejaVuSans-20"/>
      <use x="294.873047" xlink:href="#DejaVuSans-31"/>
     </g>
    </g>
   </g>
  </g>
 </g>
 <defs>
  <clipPath id="pf26bca0b7c">
   <rect height="217.44" width="334.8" x="42.620313" y="10.7"/>
  </clipPath>
 </defs>
</svg>
